PathFileType	4	(X/Y/Z)	C:/Users/opensim2020/Desktop/walking_exp_matlab/subject02_walking12_straight_01.trc	
DataRate	CameraRate	NumFrames	NumMarkers	Units	OrigDataRate	OrigDataStartFrame	OrigNumFrames	
100.00	100.00	4	42	mm	100.00	586	178	
Frame#	Time	LFHD			RFHD			LBHD			RBHD			C7			T10			CLAV			STRN			RBAK			LSHO			LUPA			LELB			LFRM			LWRA			LWRB			LFIN			RSHO			RUPA			RELB			RFRM			RWRA			RWRB			RFIN			LASI			RASI			LPSI			RPSI			LTHI			LKNE			LTIB			LANK			LHEE			LTOE			RTHI			RKNE			RTIB			RANK			RHEE			RTOE			*39			*40			*41			
		X1	Y1	Z1	X2	Y2	Z2	X3	Y3	Z3	X4	Y4	Z4	X5	Y5	Z5	X6	Y6	Z6	X7	Y7	Z7	X8	Y8	Z8	X9	Y9	Z9	X10	Y10	Z10	X11	Y11	Z11	X12	Y12	Z12	X13	Y13	Z13	X14	Y14	Z14	X15	Y15	Z15	X16	Y16	Z16	X17	Y17	Z17	X18	Y18	Z18	X19	Y19	Z19	X20	Y20	Z20	X21	Y21	Z21	X22	Y22	Z22	X23	Y23	Z23	X24	Y24	Z24	X25	Y25	Z25	X26	Y26	Z26	X27	Y27	Z27	X28	Y28	Z28	X29	Y29	Z29	X30	Y30	Z30	X31	Y31	Z31	X32	Y32	Z32	X33	Y33	Z33	X34	Y34	Z34	X35	Y35	Z35	X36	Y36	Z36	X37	Y37	Z37	X38	Y38	Z38	X39	Y39	Z39	X40	Y40	Z40	X41	Y41	Z41	X42	Y42	Z42	

90	0.890	-1099.62219	-228.62749	1756.52686	-959.24786	-248.35826	1731.41602	-1130.60681	-349.14703	1671.06067	-993.08392	-380.23236	1643.67480	-1067.05933	-402.83954	1527.63843	-1069.85852	-447.83984	1251.24792	-1069.90759	-261.69101	1463.96667	-1060.46729	-205.36232	1292.87109	-1010.99829	-460.11700	1351.30359	-1242.93689	-317.48660	1507.13330	-1334.57776	-296.55420	1309.64758	-1354.15576	-276.19937	1170.21509	-1365.66675	-236.26764	1044.11536	-1322.93237	-163.15140	933.49219	-1366.37280	-198.98621	927.07214	-1368.00818	-163.00681	872.30579	-877.08301	-335.28058	1493.03076	-795.02478	-361.16449	1303.29944	-772.64032	-338.64185	1157.54053	-757.12262	-291.71002	1044.78113	-781.63330	-223.36877	928.30817	-747.88629	-268.91568	916.42267	-749.15631	-221.77347	860.52795	-1192.73059	-205.55077	997.59882	-939.09436	-218.37900	983.83350	-1124.71631	-418.31555	1039.15784	-1009.50067	-429.87537	1034.44067	-1242.37610	-274.20593	680.67462	-1211.75452	-317.37576	479.93466	-1213.77466	-374.78656	292.80176	-1169.71753	-375.62421	70.60066	-1122.81812	-417.13480	44.08421	-1164.43982	-218.37711	32.69941	-862.20898	-237.03915	679.43243	-879.82166	-190.35526	487.72467	-887.83429	-320.94650	359.94791	-931.33466	-438.01501	209.64714	-995.85889	-483.84357	171.74338	-886.74548	-349.54691	87.02224	-1023.53613	-348.35046	1807.86682						 
91	0.900	-1099.77881	-214.74181	1756.09692	-959.37372	-234.87090	1730.84485	-1131.57922	-335.78296	1671.69983	-994.00439	-367.41479	1643.93066	-1068.46057	-390.56461	1527.85095	-1070.84009	-435.86630	1251.40393	-1071.16931	-249.62527	1464.02771	-1062.07239	-193.42325	1292.83264	-1012.48743	-448.25024	1351.53052	-1244.00269	-305.06180	1507.64832	-1336.33618	-280.86139	1311.25854	-1357.04175	-256.98145	1172.34241	-1367.91968	-212.40694	1047.57703	-1324.67126	-134.76706	940.33734	-1367.79504	-170.62718	932.08307	-1368.97986	-132.60161	878.59393	-878.38495	-323.49225	1492.77930	-796.55597	-351.15237	1302.94019	-773.93250	-329.28030	1157.39209	-757.80634	-284.32043	1044.04333	-782.38135	-218.16090	926.98419	-748.32751	-263.46201	915.27960	-749.40472	-217.69566	858.68634	-1195.18225	-195.52608	996.49841	-941.95490	-204.62834	984.50897	-1124.22424	-407.31711	1039.21802	-1008.72192	-416.98727	1034.92957	-1243.06079	-269.36148	680.16138	-1211.94727	-315.58160	479.98178	-1213.60620	-373.84802	293.14166	-1169.51282	-375.50220	70.93439	-1122.50391	-416.94968	44.58967	-1164.57617	-218.26942	32.62778	-862.69928	-219.13850	681.68732	-881.71735	-169.44362	489.79697	-890.19464	-293.98563	355.32175	-934.31720	-403.18832	199.41942	-999.11572	-447.53543	159.55663	-889.85266	-308.19214	82.44427	-1024.31812	-334.54013	1808.39966						 
92	0.910	-1100.05713	-200.70247	1755.40063	-959.54639	-221.79903	1729.83606	-1132.52600	-322.41534	1672.14648	-995.02588	-354.97595	1644.06140	-1069.75574	-378.19244	1527.88489	-1071.58826	-423.90518	1251.37610	-1072.37671	-237.42950	1463.88538	-1063.63147	-181.44936	1292.62280	-1013.76703	-436.44443	1351.67773	-1245.08337	-292.47867	1508.00647	-1337.93494	-265.53894	1312.64502	-1359.56189	-238.17215	1174.30469	-1369.84058	-188.95241	1051.05310	-1325.98242	-107.03641	946.95605	-1369.09583	-142.57405	937.09454	-1369.81970	-102.65900	885.16718	-879.56525	-311.73596	1492.13574	-797.97119	-341.45770	1302.44312	-775.11743	-320.16623	1156.93420	-758.73108	-277.01965	1043.11365	-782.31091	-212.77550	924.39752	-748.72278	-258.05643	914.09052	-749.54865	-212.80121	856.72900	-1197.69055	-185.60092	995.11926	-944.85260	-191.18240	984.74585	-1123.36914	-396.45261	1039.25098	-1007.55933	-404.56326	1035.57947	-1243.56812	-264.47757	679.59149	-1211.93738	-313.58304	480.07349	-1213.36023	-372.99463	293.74304	-1169.25305	-375.39243	71.32648	-1122.10046	-416.78964	45.19709	-1164.65759	-218.06253	32.55515	-863.12903	-201.97510	683.67499	-883.57458	-149.05136	491.99716	-892.64008	-267.10922	350.58176	-937.20673	-367.82733	189.18201	-1002.18134	-409.88702	146.83841	-892.69135	-266.36166	78.06256	-1024.59839	-320.23953	1808.41345						 
93	0.920	-1100.10779	-186.77133	1754.57617	-959.97931	-208.42044	1728.65295	-1133.41846	-308.93082	1672.43115	-996.15131	-341.92264	1644.10913	-1071.12073	-365.84070	1527.74451	-1072.20825	-411.81500	1251.18311	-1073.39600	-225.18814	1463.44067	-1065.05176	-169.41135	1292.14941	-1015.04999	-425.35059	1351.79419	-1246.07019	-279.93506	1508.09265	-1339.91150	-250.34517	1313.97266	-1361.92578	-219.66052	1176.12683	-1371.66565	-165.80835	1054.68689	-1327.44263	-79.64847	954.13702	-1370.15369	-115.03349	942.61218	-1370.43066	-73.21558	891.87457	-880.74255	-299.94415	1491.58374	-799.18982	-331.02127	1302.20068	-776.38531	-311.41138	1156.47217	-759.66144	-269.74710	1041.98828	-782.61615	-207.03107	922.35815	-749.08325	-252.61334	912.81799	-749.73199	-208.82683	854.56549	-1200.16968	-176.19345	993.42352	-947.64404	-178.46227	984.28821	-1122.35315	-385.60507	1039.12305	-1006.38062	-392.02603	1036.07642	-1243.88525	-259.57111	678.98895	-1211.80054	-311.29425	480.20438	-1213.07483	-372.25604	294.67288	-1168.94910	-375.30185	71.76525	-1121.54724	-416.50717	45.68077	-1164.81140	-217.88545	32.68051	-863.23419	-185.20813	685.58801	-885.22461	-129.71449	493.58957	-895.10242	-240.30107	345.68381	-939.82300	-331.85162	178.78726	-1005.03137	-370.79449	133.81508	-895.50629	-224.05261	74.10086	-1024.69421	-306.05704	1807.98547						 
